<?xml version="1.0" encoding="UTF-8"?> <!-- Generator: Adobe Illustrator 25.4.1, SVG Export Plug-In . SVG Version: 6.00 Build 0) --> <svg xmlns="http://www.w3.org/2000/svg" xmlns:xlink="http://www.w3.org/1999/xlink" version="1.1" id="Warstwa_1" x="0px" y="0px" width="138.7px" height="33.8px" viewBox="0 0 138.7 33.8" style="enable-background:new 0 0 138.7 33.8;" xml:space="preserve"> <style type="text/css"> .st0{fill:#12100B;} </style> <polygon class="st0" points="109.8,0 109.8,33.1 101.2,33.1 101.8,15 101.1,15 99.4,33.1 93.1,33.1 91.5,15 90.8,15 91.3,33.1 82.8,33.1 82.8,0 95,0 95.9,18.1 96.7,18.1 97.6,0 "></polygon> <path class="st0" d="M51.7,0v24.9h-0.3h-1.1H50V0h-8.6v24.9c0,6.1,3.3,8.9,9.5,8.9c6.2,0,9.5-2.8,9.5-8.9V0H51.7z"></path> <polygon class="st0" points="10.3,0 10.3,12.4 10,12.4 10,12.4 8.9,12.4 8.9,12.4 8.6,12.4 8.6,0 0,0 0,33.1 8.6,33.1 8.6,20.7 10.3,20.7 10.3,33.1 18.9,33.1 18.9,0 "></polygon> <polygon class="st0" points="31,0 31,12.4 30.7,12.4 30.7,12.4 29.6,12.4 29.6,12.4 29.3,12.4 29.3,0 20.7,0 20.7,33.1 29.3,33.1 29.3,20.7 31,20.7 31,33.1 39.6,33.1 39.6,0 "></polygon> <path class="st0" d="M72.4,0v24.9h-0.3H71h-0.3V0h-8.6v24.9c0,6.1,3.3,8.9,9.5,8.9c6.2,0,9.5-2.8,9.5-8.9V0H72.4z"></path> <polygon class="st0" points="138.7,0 138.7,33.1 130,33.1 130.7,15 129.9,15 128.3,33.1 122,33.1 120.3,15 119.6,15 120.2,33.1 111.6,33.1 111.6,0 123.8,0 124.7,18.1 125.5,18.1 126.5,0 "></polygon> </svg> 